<?xml version="1.0" standalone="no"?>
<!DOCTYPE svg PUBLIC "-//W3C//DTD SVG 20010904//EN"
 "http://www.w3.org/TR/2001/REC-SVG-20010904/DTD/svg10.dtd">
<svg version="1.0" xmlns="http://www.w3.org/2000/svg"
 width="775.000000pt" height="775.000000pt" viewBox="0 0 775.000000 775.000000"
 preserveAspectRatio="xMidYMid meet">

<g transform="translate(0.000000,775.000000) scale(0.100000,-0.100000)"
fill="#000000" stroke="none">
<path d="M4357 7195 c-52 -19 -67 -37 -67 -80 l0 -37 -57 6 c-147 14 -484 18
-603 7 -199 -19 -366 -48 -540 -93 -41 -11 -91 -24 -110 -29 -41 -10 -196 -65
-295 -105 -72 -29 -319 -152 -390 -195 -110 -65 -315 -218 -437 -326 -29 -25
-69 -60 -89 -77 -122 -106 -169 -149 -238 -214 -83 -80 -136 -121 -191 -144
-85 -37 -219 -61 -287 -53 -36 5 -53 2 -68 -9 -20 -16 -20 -16 9 -40 15 -13
45 -29 66 -35 53 -16 150 -14 184 4 33 18 68 11 59 -11 -3 -7 -9 -14 -14 -14
-15 0 -122 -89 -149 -124 -45 -58 -143 -156 -157 -156 -7 0 -13 -4 -13 -8 0
-4 -30 -23 -67 -42 -38 -19 -70 -37 -73 -40 -3 -3 -34 -26 -70 -52 -78 -54
-140 -120 -200 -208 -24 -36 -47 -66 -52 -68 -4 -2 -8 -10 -8 -18 0 -13 -26
-61 -40 -74 -11 -10 -70 -112 -70 -120 0 -36 139 22 245 104 64 48 160 140
194 186 14 19 36 46 49 60 13 14 31 37 40 53 9 15 20 27 24 27 4 0 8 5 8 11 0
6 6 16 12 23 7 7 24 28 38 47 14 18 42 53 64 76 21 24 35 43 30 43 -5 0 -1 7
10 15 10 8 16 21 13 29 -4 9 1 17 14 21 10 4 17 11 14 16 -4 5 -1 9 5 9 6 0
26 16 45 36 21 21 35 30 35 21 0 -8 -7 -20 -15 -27 -8 -7 -15 -16 -15 -21 0
-4 -28 -52 -61 -106 -64 -102 -134 -233 -157 -293 -8 -19 -18 -45 -23 -57 -21
-52 -28 -71 -47 -123 -11 -30 -23 -68 -27 -85 -14 -69 -27 -86 -84 -111 -31
-14 -83 -29 -116 -34 -109 -16 -110 -16 -238 -74 -32 -14 -60 -26 -62 -26 -7
0 -40 -28 -97 -79 -56 -51 -66 -86 -50 -176 9 -46 9 -75 0 -118 -10 -45 -9
-70 1 -119 7 -35 16 -65 19 -68 4 -3 8 -11 10 -18 5 -24 147 -136 201 -159 20
-8 47 -12 65 -9 23 4 45 -1 80 -20 66 -35 104 -46 109 -31 6 17 43 -7 39 -24
-13 -53 4 -243 43 -469 27 -162 27 -217 -5 -375 -5 -27 -12 -70 -15 -95 -4
-25 -11 -54 -16 -65 -4 -11 -13 -49 -18 -85 -5 -36 -14 -83 -20 -105 -6 -22
-11 -77 -11 -122 0 -76 2 -84 24 -98 46 -30 74 1 105 121 20 79 41 285 35 355
-3 30 1 38 16 42 21 5 20 7 24 -80 1 -10 8 -21 16 -24 9 -4 17 -21 18 -40 3
-39 10 -49 21 -30 15 24 32 1 29 -37 -2 -27 1 -37 12 -37 12 0 14 -14 12 -80
-4 -81 16 -220 43 -311 10 -33 28 -62 55 -87 22 -21 40 -44 40 -50 0 -15 60
-139 78 -159 8 -10 15 -39 16 -65 1 -27 7 -58 14 -71 7 -12 10 -26 7 -31 -9
-15 13 -61 29 -61 9 0 20 9 26 19 15 28 12 143 -4 193 -8 24 -17 60 -20 80 -4
20 -10 38 -15 40 -4 2 -18 23 -30 48 -29 60 -56 106 -71 125 -6 8 -10 20 -8
26 2 6 21 -16 42 -50 22 -34 44 -65 50 -69 6 -4 31 -36 56 -72 53 -78 60 -87
83 -108 9 -9 17 -20 17 -24 0 -12 80 -98 91 -98 4 0 5 9 2 20 -7 28 16 25 26
-2 7 -18 2 -31 -20 -59 -35 -45 -36 -61 -5 -132 17 -37 36 -61 59 -76 52 -32
58 -61 13 -61 -12 0 -38 -14 -58 -30 -41 -34 -74 -114 -63 -152 24 -84 39
-109 83 -138 40 -26 54 -30 118 -30 85 0 183 32 229 74 35 33 47 23 50 -41 5
-111 48 -163 140 -171 118 -10 227 53 264 154 24 63 26 91 9 145 -6 22 -8 42
-5 45 4 4 33 -1 65 -10 67 -18 112 -21 112 -5 0 5 5 7 10 4 6 -3 10 -25 10
-47 0 -98 88 -259 189 -348 83 -73 180 -117 287 -130 91 -11 125 -16 344 -50
651 -100 1293 -5 1865 275 175 86 262 134 338 189 36 25 67 46 70 46 6 0 114
80 221 164 95 74 245 220 356 346 41 47 80 89 87 95 6 5 48 62 93 125 45 63
85 117 89 120 3 3 12 18 19 34 20 45 97 140 153 189 86 76 233 137 327 137 26
0 33 4 29 15 -4 8 -2 17 3 20 18 11 11 21 -25 38 -44 21 -119 22 -175 2 -31
-11 -46 -12 -56 -4 -10 8 0 30 45 102 31 51 72 117 90 148 19 31 63 83 100
115 158 140 260 262 278 333 14 58 91 232 97 219 3 -7 3 -3 0 9 -3 12 3 37 12
55 9 18 12 34 7 35 -6 2 -8 15 -5 28 7 37 -11 31 -86 -29 -75 -60 -152 -140
-197 -207 -16 -24 -32 -46 -35 -49 -5 -5 -59 -108 -110 -210 -16 -30 -36 -77
-46 -105 -10 -27 -23 -59 -30 -70 -6 -11 -17 -37 -24 -57 -12 -40 -37 -55 -26
-15 4 12 9 35 12 52 3 16 12 42 20 57 8 16 12 28 10 28 -3 0 2 17 11 37 36 87
85 310 99 453 6 63 11 79 35 102 15 16 35 28 43 28 9 0 24 4 34 9 9 5 47 21
84 36 100 40 218 133 277 218 33 48 54 137 32 137 -6 0 -10 3 -9 8 6 21 -15
52 -35 52 -13 0 -17 3 -11 8 15 9 3 142 -16 187 -7 17 -12 34 -11 39 10 44
-50 95 -177 149 -67 29 -149 36 -170 15 -9 -9 -23 -6 -59 12 -48 24 -92 60
-74 60 6 0 8 7 4 16 -6 15 -7 15 -19 0 -18 -25 -24 -6 -14 40 12 50 12 65 0
84 -14 22 -29 2 -32 -43 -1 -21 -5 -40 -9 -42 -3 -3 -3 -25 1 -50 8 -50 1 -60
-31 -50 -22 7 -143 -11 -171 -26 -10 -5 -27 -9 -39 -9 -27 0 -79 -56 -79 -85
0 -12 -10 -30 -22 -38 -68 -47 -88 -74 -88 -117 0 -26 8 -53 20 -70 11 -15 17
-30 13 -34 -3 -3 -1 -6 6 -6 7 0 9 -5 6 -10 -4 -6 20 -50 53 -99 57 -84 71
-103 117 -156 11 -12 29 -35 40 -51 61 -87 159 -183 185 -184 22 0 42 -76 34
-128 -4 -23 -10 -42 -15 -42 -5 0 -9 -19 -9 -41 0 -52 -21 -169 -30 -169 -4 0
-10 -28 -14 -62 -3 -34 -12 -69 -20 -77 -8 -9 -18 -40 -22 -68 -3 -29 -13 -58
-20 -64 -8 -6 -17 -33 -20 -60 -4 -27 -10 -49 -14 -49 -11 0 -30 -48 -30 -75
0 -14 -3 -25 -8 -25 -4 0 -13 -15 -20 -32 -8 -18 -29 -66 -48 -106 -19 -40
-34 -80 -34 -88 0 -7 -4 -14 -8 -14 -8 0 -30 -45 -66 -132 -8 -21 -17 -38 -21
-38 -6 0 -1 67 14 180 6 41 11 125 11 187 0 62 7 159 16 217 17 116 15 328 -5
481 -14 111 -17 121 -35 106 -20 -17 -24 -5 -15 51 6 36 5 56 -4 66 -6 8 -12
20 -13 26 -3 32 -5 36 -14 36 -5 0 -10 -13 -10 -30 0 -20 -5 -30 -15 -30 -24
0 -30 31 -12 62 26 45 21 66 -38 183 -30 59 -55 114 -55 121 0 22 -22 28 -36
9 -13 -17 -14 -17 -20 -1 -4 10 -2 22 5 29 13 13 15 63 2 71 -4 3 -13 -6 -19
-19 -7 -14 -16 -25 -21 -25 -18 0 -18 25 1 68 10 25 15 54 12 67 -7 27 -32 41
-48 25 -31 -31 -40 -343 -13 -440 20 -71 36 -119 53 -152 8 -14 14 -37 14 -51
0 -14 7 -32 15 -41 8 -8 15 -25 15 -38 0 -13 9 -38 20 -56 11 -17 23 -50 26
-72 4 -22 10 -40 14 -40 4 0 13 -28 19 -62 6 -34 14 -64 19 -67 5 -3 14 -31
20 -61 7 -30 19 -79 27 -109 8 -29 17 -94 21 -145 4 -50 10 -95 14 -101 4 -5
8 -48 8 -95 0 -70 -2 -78 -9 -45 -5 27 -6 6 -4 -65 3 -58 1 -99 -4 -92 -12 20
-29 -51 -36 -148 -3 -47 -12 -91 -19 -100 -7 -8 -16 -35 -19 -59 -3 -24 -11
-47 -17 -51 -6 -4 -19 -19 -28 -33 -100 -153 -346 -418 -528 -567 -217 -180
-438 -317 -697 -434 -123 -56 -144 -65 -187 -77 -25 -7 -49 -15 -55 -19 -5 -3
-44 -17 -85 -29 -41 -13 -84 -27 -95 -31 -11 -5 -31 -11 -45 -14 -14 -2 -56
-12 -95 -21 -377 -88 -801 -104 -1155 -44 -36 6 -79 12 -97 12 -36 1 -40 10
-35 69 4 32 8 38 35 44 71 15 156 98 158 155 3 56 -19 121 -52 155 -37 38 -37
38 15 159 26 61 34 139 18 173 -31 63 -45 80 -82 107 -58 42 -163 48 -262 14
-37 -12 -68 -26 -68 -31 0 -4 -6 -8 -14 -8 -18 0 -173 -94 -196 -120 -3 -3
-32 -27 -65 -55 -33 -27 -62 -52 -65 -55 -3 -3 -27 -21 -55 -39 -43 -28 -56
-32 -95 -27 -25 3 -76 8 -113 12 -54 5 -67 10 -65 22 2 11 16 16 48 17 49 1
122 33 156 68 11 12 31 41 43 64 20 35 23 51 18 102 -5 63 -25 101 -66 123
-49 27 -274 5 -294 -29 -4 -7 -18 -13 -30 -12 -12 0 -16 3 -9 6 6 2 10 9 7 14
-3 5 -1 18 6 30 11 21 10 26 -18 134 -3 11 -25 39 -50 62 -62 60 -164 80 -240
48 -57 -24 -93 -73 -93 -126 0 -47 -16 -55 -120 -62 -89 -5 -97 -4 -126 18
-59 45 -243 239 -268 284 -5 9 -24 34 -41 56 -18 22 -35 47 -39 55 -3 8 -20
35 -36 60 -17 25 -54 94 -84 153 -29 60 -62 114 -72 122 -13 10 -15 14 -5 15
7 0 11 6 7 15 -10 28 23 16 67 -23 74 -67 141 -118 190 -146 26 -16 47 -33 47
-39 0 -6 3 -7 7 -4 9 9 94 -75 145 -143 70 -93 235 -250 262 -250 13 0 26 7
30 15 3 8 2 15 -3 15 -4 0 -14 18 -21 39 -16 50 -89 133 -140 162 -39 22 -53
49 -26 49 7 0 33 -9 57 -19 69 -31 275 -90 348 -101 261 -40 241 -34 278 -78
18 -23 57 -58 86 -79 29 -21 54 -41 55 -45 2 -5 9 -8 15 -8 7 0 29 -9 50 -20
47 -25 172 -50 254 -50 80 0 201 23 250 48 79 41 113 105 88 167 -8 18 -19 36
-24 39 -9 6 -8 27 5 160 6 60 4 71 -12 83 -10 7 -13 13 -5 13 20 0 3 41 -31
74 -89 86 -253 86 -422 -2 -81 -41 -229 -150 -311 -225 -29 -28 -32 -29 -115
-23 -105 7 -237 31 -257 47 -9 8 -11 15 -4 22 7 7 15 6 26 -3 36 -30 243 13
367 75 27 13 48 22 48 20 0 -6 143 89 223 149 57 41 66 51 50 57 -16 7 -16 8
0 8 9 1 17 7 17 14 0 28 -20 33 -98 25 -142 -15 -228 -44 -417 -139 -244 -122
-264 -129 -375 -131 l-95 -1 -114 57 c-63 31 -133 70 -157 87 -23 16 -46 29
-49 29 -6 0 -107 76 -141 105 -7 6 -31 26 -54 45 -124 104 -133 132 -25 75 33
-17 85 -39 115 -49 60 -19 266 -56 315 -56 35 0 39 -3 105 -60 148 -129 334
-119 530 27 45 34 135 116 135 124 0 3 10 17 23 33 25 32 29 66 8 66 -7 0 -19
-7 -26 -15 -6 -8 -22 -17 -33 -21 -12 -4 -42 -24 -67 -46 -71 -63 -95 -82
-121 -97 -109 -64 -193 -87 -278 -76 -31 4 -65 7 -76 8 -20 1 -35 14 -35 31 0
5 6 3 14 -3 20 -16 175 7 200 30 6 5 18 9 28 9 25 0 138 58 135 69 -1 5 6 16
17 23 10 8 17 22 15 31 -4 16 -7 16 -39 -3 -19 -11 -63 -34 -97 -51 -68 -34
-97 -59 -69 -59 10 0 14 -4 11 -10 -9 -14 -21 -12 -38 5 -11 11 -22 12 -48 5
-51 -15 -79 -12 -79 6 0 12 6 15 25 10 14 -4 25 -2 25 4 0 5 3 9 8 9 22 -4 42
2 37 11 -3 6 -1 10 4 10 6 0 11 -5 11 -12 0 -7 5 -6 13 4 12 16 94 73 112 79
6 1 19 14 30 28 51 66 84 91 119 91 38 0 105 -23 146 -50 44 -28 96 -2 58 29
-84 69 -99 77 -161 86 -43 7 -47 10 -46 34 1 17 3 20 6 9 4 -14 7 -15 16 -5
18 18 57 105 57 125 0 84 -181 91 -347 16 -122 -56 -292 -242 -344 -376 -12
-31 -31 -34 -102 -19 -23 5 -84 17 -136 26 -98 18 -151 38 -131 50 6 4 28 4
49 0 41 -7 152 24 182 51 8 8 19 14 24 14 10 0 98 73 180 149 39 37 61 65 63
83 3 24 -1 28 -33 34 -76 14 -139 -5 -211 -63 -147 -120 -211 -157 -304 -179
-46 -10 -61 -10 -100 2 -41 14 -98 60 -86 71 2 2 18 -3 36 -12 64 -33 120 -17
120 34 0 21 -19 44 -84 104 -47 42 -102 104 -123 136 -29 44 -43 57 -53 51
-16 -10 -30 -4 -30 12 0 5 7 7 15 4 9 -3 18 0 21 7 2 7 -2 78 -11 157 -8 80
-15 160 -15 178 0 32 0 32 53 33 28 1 76 4 106 7 50 7 56 10 74 45 14 27 33
45 61 58 113 50 130 112 75 270 -27 77 -85 202 -109 234 -4 6 -27 45 -49 89
-62 115 -89 156 -106 156 -18 0 -20 -21 -3 -38 15 -15 4 -26 -17 -19 -18 8
-21 67 -2 67 7 0 25 42 41 98 56 183 103 302 206 517 39 81 98 186 116 206 8
8 14 19 14 23 0 15 113 176 123 176 6 0 8 3 5 6 -6 5 27 62 54 94 7 8 12 18
11 21 -3 10 25 20 31 11 3 -5 -10 -46 -28 -92 -43 -110 -56 -152 -56 -177 0
-11 -3 -23 -7 -27 -4 -4 -8 -22 -8 -40 -2 -33 -25 -112 -53 -176 -16 -37 -22
-58 -53 -185 -33 -133 -41 -222 -35 -395 5 -184 10 -218 54 -375 34 -124 72
-311 74 -368 1 -21 4 -40 8 -42 32 -20 114 184 132 330 12 96 7 163 -28 375
-80 487 -70 710 49 1080 35 109 78 196 136 272 44 57 265 272 275 267 3 -2 12
6 21 18 19 27 139 123 154 123 6 0 11 4 11 9 0 22 375 241 414 241 8 0 16 7
20 15 3 8 14 15 24 15 10 0 22 4 28 9 5 4 32 16 59 26 28 10 56 23 63 28 6 5
12 7 12 3 0 -4 18 3 40 14 63 32 163 62 380 115 256 62 549 90 824 79 94 -3
176 -9 183 -13 17 -9 5 -23 -39 -45 -23 -11 -45 -34 -59 -60 -22 -42 -22 -43
-4 -89 16 -43 25 -52 48 -48 4 0 7 -5 7 -13 0 -8 7 -16 15 -20 8 -3 15 -17 15
-31 0 -14 5 -25 11 -25 11 0 2 -41 -12 -50 -4 -3 -19 -30 -33 -60 -27 -58 -32
-103 -17 -142 5 -13 12 -36 16 -51 3 -15 10 -25 14 -22 5 3 17 2 27 -2 17 -6
17 -7 0 -13 -16 -5 -15 -9 12 -37 35 -34 116 -55 179 -47 62 9 142 44 233 102
90 58 106 71 239 191 45 42 95 82 109 90 44 23 222 0 222 -29 0 -4 -15 -11
-32 -15 -18 -4 -35 -9 -38 -9 -64 -21 -101 -49 -139 -104 -21 -31 -23 -42 -18
-103 5 -57 10 -73 34 -97 15 -16 38 -34 50 -41 48 -25 201 -3 280 40 17 10 34
15 37 12 3 -4 6 -31 6 -62 0 -79 6 -93 52 -121 25 -16 34 -26 24 -28 -16 -3
-11 -32 6 -32 5 0 16 -6 24 -14 22 -22 113 -38 153 -26 19 5 38 7 42 4 5 -3 9
-1 9 4 0 5 13 15 28 21 16 7 29 17 30 24 1 7 8 37 17 67 8 30 15 62 15 70 0
14 9 16 53 12 31 -2 75 3 105 12 29 8 52 12 52 7 0 -4 16 -13 35 -20 19 -7 33
-17 30 -22 -3 -5 1 -6 9 -3 10 4 20 -6 32 -28 9 -18 19 -28 21 -21 5 14 40
-15 119 -97 88 -92 124 -134 124 -148 0 -7 7 -15 15 -18 8 -4 15 -12 15 -20 0
-7 9 -18 19 -23 10 -6 24 -24 29 -41 6 -16 16 -30 21 -30 6 0 11 -9 11 -20 0
-10 9 -24 20 -30 12 -6 20 -21 20 -35 0 -14 8 -29 20 -35 13 -7 20 -21 20 -39
0 -16 7 -31 15 -35 8 -3 15 -14 15 -24 0 -10 9 -27 20 -37 11 -10 20 -28 20
-41 0 -12 5 -24 11 -26 6 -2 9 -14 7 -26 -3 -21 -9 -17 -70 40 -74 70 -118
103 -222 165 -116 70 -110 65 -269 232 -74 77 -176 164 -223 189 -11 6 -26 7
-33 2 -25 -15 -3 -55 61 -116 35 -33 64 -64 66 -69 1 -6 8 -10 15 -10 6 0 12
-5 12 -11 0 -6 8 -18 18 -28 12 -12 17 -14 17 -4 0 7 9 -2 21 -21 11 -18 19
-35 17 -36 -2 -2 -41 12 -88 30 -47 18 -103 37 -125 43 -22 6 -58 15 -80 21
-47 12 -185 30 -302 39 -82 7 -95 13 -153 72 -26 26 -96 73 -140 93 -132 59
-225 75 -347 58 -99 -14 -173 -32 -173 -42 0 -4 -11 -10 -25 -13 -14 -4 -43
-23 -65 -42 -33 -30 -40 -43 -40 -74 0 -26 8 -48 24 -67 33 -39 40 -84 25
-157 -12 -65 -8 -105 14 -128 6 -7 13 -20 15 -28 11 -47 110 -100 188 -100
136 0 337 106 488 259 76 77 95 91 138 102 39 9 52 9 58 -1 4 -7 39 -13 85
-16 43 -2 83 -8 89 -14 5 -5 19 -10 30 -10 50 0 -8 -19 -104 -34 -152 -25
-247 -73 -455 -232 -99 -75 -117 -93 -113 -111 5 -28 103 -29 192 -3 87 26
210 75 254 102 17 11 32 17 32 14 0 -3 12 6 26 19 15 14 32 25 37 25 6 0 18 6
26 14 31 27 176 98 226 111 88 22 144 27 183 15 108 -34 305 -125 374 -172 16
-11 32 -17 37 -13 5 3 12 -4 16 -14 3 -11 34 -36 68 -55 66 -37 161 -122 152
-136 -3 -5 1 -10 7 -13 7 -2 10 -7 7 -11 -3 -3 -41 12 -85 34 -43 23 -110 48
-149 56 -38 9 -86 20 -106 25 -20 5 -70 9 -112 9 -86 0 -115 9 -167 50 -20 16
-61 41 -91 56 -48 24 -64 27 -154 27 -93 0 -104 -3 -159 -32 -116 -62 -263
-186 -288 -243 -7 -15 -16 -28 -19 -28 -11 0 -19 -44 -12 -68 3 -13 13 -22 24
-22 14 0 19 -7 19 -27 0 -14 3 -23 7 -20 3 4 12 2 20 -4 7 -6 13 -8 13 -4 0 5
9 0 20 -10 10 -9 26 -15 35 -12 8 4 15 2 15 -3 0 -6 3 -9 8 -9 11 3 72 -22 72
-29 0 -4 -13 -22 -28 -40 -16 -18 -34 -49 -41 -69 -12 -33 -12 -37 13 -62 25
-24 32 -26 112 -25 47 1 96 6 107 11 201 92 257 141 372 324 29 46 65 120 65
133 0 8 4 17 9 21 17 10 195 -20 309 -52 58 -16 69 -33 20 -33 -64 0 -159 -23
-194 -46 -19 -13 -39 -24 -44 -24 -4 0 -56 -46 -115 -103 -94 -91 -106 -106
-103 -132 3 -29 5 -30 58 -33 32 -2 70 3 95 12 39 15 55 28 156 119 124 112
220 151 342 138 36 -4 68 -9 69 -11 10 -14 25 -70 20 -70 -3 0 -26 7 -50 17
-61 23 -116 10 -120 -30 -3 -24 1 -28 28 -34 20 -3 35 -14 40 -28 5 -12 22
-28 39 -35 17 -7 31 -17 31 -22 0 -5 5 -8 12 -6 15 5 58 -31 58 -49 0 -7 5
-13 10 -13 6 0 10 -8 10 -18 0 -11 9 -27 20 -37 11 -10 20 -25 20 -34 0 -9 9
-29 20 -46 23 -35 27 -23 5 19 -16 31 -12 48 10 40 22 -9 29 73 14 171 -14 95
-3 255 31 465 32 195 36 267 15 290 -9 10 -14 24 -10 29 10 17 -4 50 -25 61
-16 8 -24 4 -46 -25 -33 -44 -49 -166 -46 -372 2 -79 -1 -143 -6 -143 -5 0
-15 19 -22 43 -17 58 -120 268 -134 273 -7 3 -10 25 -8 60 2 31 1 76 -3 101
-5 35 -9 42 -20 33 -18 -15 -27 13 -19 56 5 29 3 35 -17 43 -13 5 -18 10 -11
10 17 1 15 46 -3 65 -8 8 -15 22 -15 31 0 20 -17 53 -92 180 -32 55 -63 107
-67 115 -5 8 -16 14 -25 14 -14 -2 -16 4 -11 28 10 42 -12 88 -40 88 -18 0
-25 -7 -30 -29 -10 -45 14 -151 44 -201 39 -63 71 -128 71 -144 0 -8 7 -16 15
-20 8 -3 20 -18 27 -33 6 -15 21 -38 31 -50 16 -18 17 -25 8 -37 -9 -11 -9
-15 1 -18 8 -3 9 -6 1 -11 -6 -4 -32 21 -59 56 -93 118 -164 196 -243 265 -43
38 -84 71 -92 74 -12 4 -11 11 4 42 23 49 34 126 18 126 -6 0 -11 10 -11 23 0
12 -9 33 -20 47 -11 14 -20 31 -20 38 0 7 -4 10 -10 7 -12 -7 -44 15 -47 32
-2 7 14 25 35 40 57 43 71 62 87 120 8 30 -4 73 -22 73 -12 0 -13 3 -4 14 15
18 11 33 -19 66 -70 77 -191 80 -340 9 -53 -26 -56 -26 -72 -8 -10 10 -18 28
-18 39 0 32 -50 96 -94 121 -33 19 -47 21 -103 15 -79 -8 -128 -32 -176 -85
-65 -72 -71 -160 -18 -265 11 -20 17 -36 16 -36 -2 0 -16 5 -32 11 -56 22
-134 39 -188 41 -31 1 -61 8 -67 15 -14 17 -4 53 23 81 l21 23 -28 57 c-43 87
-155 192 -257 241 -45 22 -97 44 -116 50 -48 15 -218 13 -264 -4z m247 -84 c6
-5 29 -14 51 -21 22 -7 47 -19 56 -27 9 -7 20 -13 25 -12 18 3 37 -1 31 -7 -8
-8 16 -33 25 -28 11 7 112 -97 126 -129 27 -62 10 -62 -77 2 -139 102 -254
148 -399 159 -83 7 -87 8 -90 32 -2 14 -8 30 -13 37 -6 7 -6 12 1 15 19 6 253
-12 264 -21z m-244 -171 c4 0 20 -20 34 -43 13 -24 47 -61 73 -83 26 -21 54
-46 61 -56 7 -10 20 -18 28 -18 8 0 14 -6 14 -12 0 -9 4 -8 10 2 5 8 10 10 10
3 0 -13 58 -35 71 -27 5 3 9 1 9 -4 0 -10 51 -24 135 -37 22 -4 46 -11 52 -17
14 -11 7 -32 -8 -23 -5 4 -22 -3 -38 -14 -16 -12 -34 -21 -39 -21 -6 0 -25
-18 -42 -41 -35 -44 -145 -128 -225 -173 -35 -19 -70 -29 -116 -33 -58 -5 -72
-3 -109 18 l-42 24 5 69 c4 39 16 99 29 135 17 48 20 65 10 69 -6 2 -12 17
-12 32 0 18 -11 43 -28 62 -16 18 -32 42 -36 52 -10 28 11 81 41 102 15 11 41
33 58 49 l30 30 8 -22 c5 -13 12 -23 17 -23z m205 13 c11 -5 43 -16 70 -23 28
-7 57 -18 65 -25 8 -6 35 -23 60 -37 48 -28 153 -114 159 -131 6 -17 -107 -1
-200 29 -46 14 -113 42 -148 61 -66 37 -151 111 -151 132 0 15 115 10 145 -6z
m965 -11 c0 -8 9 -25 20 -39 28 -36 28 -132 0 -158 -10 -9 -25 -15 -32 -12
-13 5 -40 51 -57 100 -8 21 -17 27 -41 27 -40 0 -40 -24 4 -88 44 -65 49 -93
21 -114 -21 -16 -24 -15 -72 25 l-49 42 -2 70 c-3 86 10 111 67 142 50 26 141
30 141 5z m474 -113 c30 -31 29 -58 -2 -87 -39 -35 -51 -44 -87 -62 -16 -8
-47 -25 -67 -37 -21 -13 -38 -20 -38 -17 0 4 -7 1 -15 -6 -8 -6 -19 -9 -24 -5
-16 9 15 51 47 64 30 13 56 46 47 61 -10 16 -50 12 -105 -10 -28 -11 -70 -20
-93 -20 l-42 1 30 14 c17 7 26 14 20 14 -18 2 87 62 149 87 68 26 157 28 180
3z m-593 -279 c5 0 9 -5 9 -11 0 -15 -26 -39 -42 -39 -22 0 -140 -41 -165 -58
-13 -8 -23 -23 -23 -35 0 -18 5 -19 43 -14 23 3 71 18 106 32 70 29 89 28 87
-6 -1 -16 -10 -25 -31 -32 -16 -5 -37 -16 -46 -23 -8 -8 -20 -14 -25 -14 -5 0
-27 -9 -47 -19 -46 -24 -167 -37 -195 -22 -51 27 17 150 109 196 27 14 77 32
111 40 35 8 64 19 66 25 2 6 10 4 19 -5 8 -8 19 -15 24 -15z m472 -45 c45 -18
47 -19 47 0 0 20 46 -24 51 -50 3 -11 9 -19 14 -18 6 2 13 -10 17 -24 8 -29
-13 -73 -33 -73 -6 0 -23 -9 -38 -19 -57 -41 -114 -37 -165 10 -11 11 -23 19
-27 19 -15 0 -20 39 -7 59 17 27 27 26 62 -4 30 -25 60 -32 70 -16 8 13 -52
71 -73 71 -14 0 -17 6 -13 30 4 25 9 30 32 30 15 0 44 -7 63 -15z m-334 -228
c-1 -41 3 -82 8 -92 10 -17 11 -17 22 3 6 12 14 43 18 69 6 49 19 76 33 68 4
-3 11 3 14 12 8 20 24 7 29 -24 2 -13 6 -26 10 -29 19 -19 5 -72 -31 -119 -33
-43 -43 -50 -77 -53 -31 -2 -47 3 -73 24 -29 24 -32 32 -32 79 0 69 16 116 37
108 10 -4 14 -2 10 5 -4 6 1 13 10 15 10 3 19 5 21 6 2 0 2 -32 1 -72z m-485
-297 c32 -11 61 -19 64 -18 13 2 72 -26 72 -34 0 -4 5 -8 10 -8 14 0 70 -42
70 -52 0 -4 -20 -8 -45 -8 -33 0 -45 -4 -45 -15 0 -11 11 -15 38 -15 20 0 44
-4 52 -10 12 -7 11 -12 -5 -30 -12 -13 -22 -17 -28 -11 -10 10 -97 -45 -128
-81 -9 -10 -22 -18 -29 -18 -7 0 -10 -3 -7 -6 23 -23 -239 -154 -307 -154 -29
0 -112 36 -134 58 -19 19 -19 25 5 125 11 51 13 71 4 80 -6 6 -11 20 -11 32 0
11 -9 31 -20 45 -26 33 -25 42 8 72 60 56 97 66 253 67 101 1 137 -3 183 -19z
m760 -587 c-95 -13 -136 -28 -223 -80 -83 -50 -134 -105 -82 -88 11 3 28 7 38
9 43 9 103 39 103 53 0 8 4 12 9 8 5 -3 16 2 24 10 9 8 27 15 41 15 13 0 37 5
52 10 15 6 34 8 43 5 11 -4 -1 -15 -39 -36 -30 -17 -59 -31 -65 -32 -5 -1 -16
-10 -23 -19 -7 -10 -18 -18 -24 -18 -6 0 -42 -31 -79 -70 -38 -38 -77 -70 -86
-70 -19 0 -79 18 -105 31 -10 5 -26 9 -37 9 -10 0 -22 7 -25 15 -7 19 114 144
187 194 132 90 266 124 341 86 l40 -19 -90 -13z m206 -121 c0 -47 -21 -106
-44 -121 -11 -8 -51 -44 -87 -79 -37 -35 -80 -67 -95 -71 -16 -5 -28 -13 -27
-19 2 -6 -7 -14 -20 -18 -12 -4 -34 -15 -48 -25 -14 -10 -48 -23 -75 -29 -27
-7 -61 -16 -76 -22 -15 -6 -35 -8 -44 -4 -13 5 -12 10 10 37 14 17 26 35 26
40 0 5 9 18 20 29 10 10 31 37 45 60 14 22 30 40 35 40 6 0 10 6 10 14 0 7 10
20 23 29 12 8 34 26 48 40 42 43 184 112 222 108 9 -1 17 3 17 9 0 6 4 9 8 6
4 -2 14 -1 22 4 20 12 30 3 30 -28z m70 24 c0 -3 -4 -8 -10 -11 -5 -3 -10 -1
-10 4 0 6 5 11 10 11 6 0 10 -2 10 -4z m180 -269 c0 -2 -11 -14 -25 -27 -14
-13 -25 -21 -25 -17 0 3 10 15 22 27 21 19 28 24 28 17z m-5595 -347 c3 -6 -1
-13 -9 -16 -9 -3 -16 -12 -16 -20 0 -8 -3 -13 -7 -12 -26 5 -134 -72 -187
-133 -37 -44 -47 -79 -21 -79 8 0 15 -5 15 -11 0 -5 19 10 43 34 57 61 216
201 246 216 19 10 25 10 31 1 4 -7 13 -10 18 -6 17 10 62 -5 62 -20 0 -8 -7
-14 -15 -14 -14 0 -20 -13 -15 -35 1 -5 3 -40 5 -78 5 -100 23 -177 42 -177
13 0 15 16 11 110 -3 100 -2 110 14 110 10 0 18 -4 18 -9 0 -5 15 -42 34 -83
19 -40 40 -93 47 -118 7 -25 16 -49 21 -54 4 -6 8 -24 8 -40 0 -37 14 -61 29
-52 16 10 14 55 -3 72 -8 7 -12 22 -9 33 3 10 -4 39 -14 63 -11 23 -23 56 -27
73 -4 16 -11 32 -16 35 -4 3 -10 16 -11 29 -5 29 -40 71 -60 71 -9 1 -5 8 10
20 23 20 23 20 40 -3 9 -12 22 -34 29 -49 6 -16 16 -28 22 -28 5 0 10 -8 11
-17 0 -10 14 -40 30 -68 16 -27 36 -64 44 -82 8 -17 19 -34 25 -38 5 -3 10
-18 10 -33 0 -15 9 -58 20 -96 21 -76 18 -92 -29 -134 -24 -22 -32 -23 -105
-17 -43 4 -90 12 -105 18 -41 18 -111 67 -111 78 0 6 -6 17 -14 24 -7 8 -22
46 -31 86 -21 83 -16 175 13 281 22 77 19 126 -5 106 -20 -16 -63 -103 -63
-127 0 -39 -61 -126 -115 -164 -71 -49 -129 -58 -179 -27 -20 12 -36 25 -36
29 0 4 -18 27 -41 51 -36 38 -40 48 -35 78 3 19 18 46 34 62 38 36 138 100
156 100 8 0 16 4 18 9 2 7 138 58 160 60 4 1 10 -4 13 -9z m6349 -192 c9 -10
11 -20 5 -29 -5 -8 -9 -10 -9 -5 0 6 -12 -5 -26 -22 -15 -18 -34 -32 -42 -32
-9 0 -23 -7 -33 -16 -16 -14 -20 -14 -46 5 -31 23 -111 41 -179 41 -24 0 -44
5 -44 10 0 6 5 10 11 10 5 0 8 4 5 9 -3 5 9 9 27 9 38 -1 229 30 237 38 9 10
79 -4 94 -18z m200 -23 c32 -14 61 -23 65 -20 5 2 28 -14 52 -38 23 -23 46
-41 51 -39 4 1 8 -25 8 -58 0 -33 -2 -60 -5 -60 -2 0 -26 14 -52 30 -40 26
-57 30 -115 30 -56 0 -69 3 -77 19 -6 10 -29 26 -51 35 -22 9 -40 19 -40 23 0
14 42 77 59 90 23 18 42 16 105 -12z m-173 -48 c-8 -8 -11 -7 -11 4 0 20 13
34 18 19 3 -7 -1 -17 -7 -23z m-179 -108 c17 -16 37 -29 43 -29 15 0 25 -22
25 -54 0 -12 7 -31 15 -43 16 -23 36 -258 23 -271 -4 -4 -8 -25 -10 -47 l-4
-40 -19 62 c-11 35 -23 63 -26 63 -10 0 -20 -78 -13 -108 l6 -27 -26 29 c-14
16 -26 32 -26 36 0 3 -33 52 -72 108 -40 56 -84 123 -98 149 -24 47 -37 63
-52 63 -32 0 41 -146 163 -327 38 -57 65 -103 60 -103 -11 0 -91 94 -91 107 0
5 -9 15 -20 23 -11 8 -20 20 -20 27 0 6 -6 16 -14 20 -7 4 -34 40 -59 78 -68
105 -125 178 -150 192 -18 10 -19 12 -4 13 13 0 17 9 17 38 0 29 7 45 30 67
27 26 38 29 122 34 104 7 142 -4 200 -60z m-6533 -58 c59 -47 107 -66 133 -54
31 14 53 3 53 -27 0 -16 11 -31 34 -47 19 -13 30 -23 26 -23 -4 0 -2 -6 4 -14
9 -11 3 -20 -31 -45 -23 -17 -52 -31 -64 -31 -23 0 -146 78 -181 115 -19 20
-23 35 -23 90 0 36 3 65 6 65 3 0 23 -13 43 -29z m7013 -59 c11 -9 27 -12 47
-7 30 6 43 -6 21 -20 -16 -10 -12 -24 16 -52 18 -18 22 -29 15 -36 -6 -6 -11
-19 -11 -29 0 -10 -5 -18 -11 -18 -7 0 -37 -26 -68 -58 -31 -31 -69 -67 -86
-80 -82 -61 -140 -102 -147 -102 -14 0 -8 16 15 40 12 14 21 28 20 32 -2 3 11
18 27 32 17 13 30 28 30 31 0 4 13 25 28 48 35 52 44 75 31 82 -5 4 -7 11 -4
16 4 5 2 16 -3 25 -7 13 -20 0 -68 -67 -32 -46 -61 -86 -64 -89 -3 -3 -17 -21
-30 -40 -13 -19 -30 -39 -37 -43 -7 -4 -20 -21 -28 -37 -19 -38 -37 -39 -30
-2 3 15 10 63 15 108 14 112 33 168 75 220 42 51 83 75 140 84 39 6 66 -3 107
-38z m-252 -17 c-7 -9 -15 -13 -19 -10 -3 3 1 10 9 15 21 14 24 12 10 -5z
m-49 -72 c-8 -15 -10 -15 -11 -2 0 17 10 32 18 25 2 -3 -1 -13 -7 -23z m-6334
-29 c-3 -3 -12 -4 -19 -1 -8 3 -5 6 6 6 11 1 17 -2 13 -5z m98 -50 c28 -24 47
-34 63 -31 13 3 30 -2 38 -10 8 -8 21 -13 28 -10 18 7 53 -30 40 -42 -5 -5
-58 -3 -119 5 -60 7 -137 13 -170 14 -72 0 -94 10 -72 32 8 7 22 28 31 45 12
24 24 32 48 35 53 5 71 -1 113 -38z m6647 -36 c-7 -7 -12 -8 -12 -2 0 14 12
26 19 19 2 -3 -1 -11 -7 -17z m-485 -375 c-3 -10 -5 -4 -5 12 0 17 2 24 5 18
2 -7 2 -21 0 -30z m376 -43 c-3 -12 -8 -19 -11 -16 -5 6 5 36 12 36 2 0 2 -9
-1 -20z m-38 -100 c-4 -12 -9 -19 -12 -17 -3 3 -2 15 2 27 4 12 9 19 12 17 3
-3 2 -15 -2 -27z m-31 -77 c-7 -30 -24 -55 -24 -35 0 12 21 62 27 62 2 0 0
-12 -3 -27z m-347 -65 c-3 -7 -5 -2 -5 12 0 14 2 19 5 13 2 -7 2 -19 0 -25z
m306 -29 c-8 -16 -17 -28 -20 -25 -6 5 23 56 31 56 3 0 -2 -14 -11 -31z
m-5065 -32 c7 -20 0 -36 -18 -42 -11 -4 -39 -32 -62 -63 -67 -93 -162 -175
-260 -226 -80 -41 -149 -59 -148 -38 1 16 40 53 50 47 6 -4 33 11 61 32 28 21
52 37 54 36 10 -5 56 47 50 56 -3 7 3 11 15 11 12 0 19 4 16 9 -3 5 1 11 9 15
15 6 10 36 -7 36 -12 0 -89 -52 -156 -107 -61 -48 -68 -51 -75 -24 -3 12 6 28
24 46 16 14 29 30 29 34 0 11 110 95 161 123 38 21 120 48 184 62 29 6 70 2
73 -7z m5023 -34 c-8 -15 -10 -15 -11 -2 0 17 10 32 18 25 2 -3 -1 -13 -7 -23z
m-295 -39 c-4 -20 -10 -34 -12 -31 -3 3 -2 21 2 41 3 21 9 35 11 32 3 -3 2
-21 -1 -42z m264 -3 c0 -5 -7 -12 -16 -15 -14 -5 -15 -4 -4 9 14 17 20 19 20
6z m-48 -53 c-7 -7 -12 -8 -12 -2 0 14 12 26 19 19 2 -3 -1 -11 -7 -17z m-27
-28 c-3 -5 -11 -10 -16 -10 -6 0 -7 5 -4 10 3 6 11 10 16 10 6 0 7 -4 4 -10z
m-35 -30 c0 -5 -5 -10 -11 -10 -5 0 -7 5 -4 10 3 6 8 10 11 10 2 0 4 -4 4 -10z
m-45 -40 c-10 -11 -23 -20 -29 -20 -6 0 0 9 14 20 32 25 38 25 15 0z m-65 -55
c-7 -9 -15 -13 -17 -11 -7 7 7 26 19 26 6 0 6 -6 -2 -15z m-119 -182 c-8 -15
-10 -15 -11 -2 0 17 10 32 18 25 2 -3 -1 -13 -7 -23z m-31 -57 c0 -3 -4 -8
-10 -11 -5 -3 -10 -1 -10 4 0 6 5 11 10 11 6 0 10 -2 10 -4z m-38 -58 c-8 -18
-17 -27 -20 -20 -2 7 4 22 14 33 24 26 25 24 6 -13z m-3837 -103 c27 -8 51
-12 53 -10 8 8 43 -16 37 -26 -4 -5 -1 -9 4 -9 19 0 12 -55 -15 -110 -30 -62
-27 -103 11 -149 14 -16 25 -40 25 -54 0 -26 -32 -57 -58 -57 -7 0 -27 -10
-43 -22 -29 -21 -41 -23 -176 -23 -120 0 -147 3 -156 16 -7 9 -18 14 -24 12
-7 -3 -13 0 -13 6 0 6 -8 11 -17 11 -10 0 -31 8 -48 18 -16 10 -60 31 -98 47
-37 15 -65 31 -61 34 3 3 8 5 10 3 3 -2 15 3 27 11 13 8 32 17 42 20 14 3 11
5 -10 7 -38 2 -59 11 -63 28 -1 7 8 12 21 12 22 0 136 70 178 109 11 10 32 24
47 32 15 7 44 24 65 36 25 16 37 19 37 11 0 -8 4 -6 10 4 6 9 36 24 67 33 32
10 63 19 68 20 20 6 32 5 80 -10z m3824 -69 c-2 -2 -15 -9 -29 -16 -23 -12
-24 -12 -11 3 7 10 20 17 29 17 8 0 13 -2 11 -4z m-59 -35 c0 -5 -7 -12 -16
-15 -14 -5 -15 -4 -4 9 14 17 20 19 20 6z m-4493 -7 c-3 -3 -12 -4 -19 -1 -8
3 -5 6 6 6 11 1 17 -2 13 -5z m4453 -17 c0 -2 -13 -19 -30 -37 -16 -18 -30
-30 -30 -25 0 5 12 22 27 37 25 26 33 32 33 25z m-76 -92 c-4 -8 -8 -15 -10
-15 -2 0 -4 7 -4 15 0 8 4 15 10 15 5 0 7 -7 4 -15z m-24 -34 c0 -5 -7 -14
-15 -21 -16 -14 -18 -10 -9 14 6 17 24 22 24 7z m-55 -78 c-37 -57 -45 -67
-45 -55 0 13 48 82 57 82 3 0 -3 -12 -12 -27z m-3415 -103 c0 -5 -5 -10 -11
-10 -5 0 -7 5 -4 10 3 6 8 10 11 10 2 0 4 -4 4 -10z m3333 -21 c-20 -35 -43
-57 -43 -42 0 6 9 18 20 28 11 10 20 24 20 32 0 7 5 13 11 13 5 0 2 -14 -8
-31z m-4406 -65 c-3 -3 -12 -4 -19 -1 -8 3 -5 6 6 6 11 1 17 -2 13 -5z m4343
-14 c-6 -11 -13 -20 -16 -20 -2 0 0 9 6 20 6 11 13 20 16 20 2 0 0 -9 -6 -20z
m-4222 -12 c40 -7 44 -20 30 -91 -7 -37 -16 -67 -20 -67 -5 0 -8 -9 -8 -20 0
-15 -7 -20 -25 -20 -14 0 -25 6 -25 13 -4 111 -19 148 -46 113 -8 -11 -14 -32
-14 -47 0 -60 -34 -91 -67 -61 -36 33 -22 123 28 173 21 21 56 22 147 7z
m4192 -32 c0 -3 -4 -8 -10 -11 -5 -3 -10 -1 -10 4 0 6 5 11 10 11 6 0 10 -2
10 -4z m-61 -75 c-19 -27 -39 -40 -39 -27 0 7 55 64 58 61 2 -2 -6 -17 -19
-34z m-4460 -55 c35 -19 93 -84 88 -99 -6 -21 -46 -19 -76 2 -41 30 -71 28
-71 -4 0 -14 4 -25 9 -25 20 0 83 -69 78 -84 -7 -17 -37 -21 -52 -8 -6 5 -26
15 -45 22 -19 8 -54 27 -77 42 -51 34 -56 66 -18 103 13 14 21 25 17 25 -4 1
11 9 33 20 48 23 77 25 114 6z m4406 -6 c-10 -11 -20 -18 -23 -15 -7 6 18 35
31 35 5 0 2 -9 -8 -20z m-3651 -55 c8 -32 -35 -98 -93 -144 -46 -37 -168 -81
-221 -81 -32 0 -37 3 -36 23 1 18 11 24 61 37 33 8 81 23 106 33 40 15 46 21
47 47 1 38 -10 38 -117 0 -88 -31 -129 -30 -96 3 9 10 13 17 8 17 -4 0 28 17
72 37 63 29 98 38 165 43 47 4 88 8 91 9 4 0 10 -10 13 -24z m3596 1 c0 -2 -8
-10 -17 -17 -16 -13 -17 -12 -4 4 13 16 21 21 21 13z m-2843 -67 c5 -5 21 -11
34 -13 13 -1 26 -6 28 -12 5 -14 -9 -133 -18 -152 -5 -9 -18 -36 -30 -58 -21
-43 -29 -104 -12 -104 5 0 13 -9 16 -20 4 -11 18 -31 31 -43 14 -13 27 -40 31
-60 5 -32 2 -40 -28 -69 -57 -54 -129 -80 -129 -46 0 16 -51 80 -102 129 -45
43 -174 115 -247 138 -19 6 -61 11 -95 11 l-61 0 25 24 c14 14 32 26 40 28 8
2 22 12 32 24 9 11 36 33 59 50 24 16 53 38 65 49 12 11 39 29 61 40 21 11 40
23 43 26 11 14 95 53 129 60 56 11 116 10 128 -2z m-288 -52 c-2 -1 -13 -9
-24 -17 -19 -14 -19 -14 -6 3 7 9 18 17 24 17 6 0 8 -1 6 -3z m2941 -72 c0 -2
-10 -9 -22 -15 -22 -11 -22 -10 -4 4 21 17 26 19 26 11z m-40 -39 c0 -2 -7 -7
-16 -10 -8 -3 -12 -2 -9 4 6 10 25 14 25 6z m-4089 -30 c5 3 9 -2 9 -10 0 -9
-5 -16 -11 -16 -5 0 -7 -4 -4 -10 3 -5 0 -10 -8 -10 -19 0 -94 -38 -103 -52
-4 -6 -2 -14 4 -16 7 -2 10 -8 6 -13 -9 -16 54 -10 106 10 27 11 50 18 51 18
0 -1 2 -14 4 -29 3 -25 -1 -29 -48 -46 -166 -62 -288 -44 -262 38 10 32 46 65
90 84 100 43 150 61 153 54 2 -5 8 -6 13 -2z m-106 -6 c-3 -5 -14 -10 -23 -10
-15 0 -15 2 -2 10 20 13 33 13 25 0z m4145 -4 c0 -2 -7 -7 -16 -10 -8 -3 -12
-2 -9 4 6 10 25 14 25 6z m-4235 -36 c-3 -5 -12 -10 -18 -10 -7 0 -6 4 3 10
19 12 23 12 15 0z m578 -20 c14 -11 30 -20 35 -20 17 0 24 -17 28 -75 7 -78
-30 -140 -101 -169 -55 -23 -79 -20 -114 16 -29 30 -31 37 -31 105 0 58 3 73
15 73 8 0 15 5 15 10 0 6 7 10 16 10 11 0 14 6 9 21 -5 15 -3 20 5 17 7 -2 13
-25 15 -53 4 -85 17 -120 45 -120 22 0 25 4 24 38 -1 21 -6 48 -11 60 -33 70
-33 76 -10 92 27 19 29 19 60 -5z m3517 -54 c0 -2 -7 -7 -16 -10 -8 -3 -12 -2
-9 4 6 10 25 14 25 6z m-2895 -74 c33 -8 69 -20 80 -26 11 -5 25 -11 30 -12
19 -3 85 -46 85 -55 0 -5 6 -9 13 -9 7 0 31 -15 53 -33 21 -19 45 -36 53 -38
8 -3 15 -17 17 -32 2 -23 -1 -27 -21 -27 -13 0 -34 4 -47 9 -13 5 -41 14 -63
21 -68 20 -106 40 -225 120 -63 42 -123 80 -132 83 -10 3 -15 12 -12 20 5 15
59 8 169 -21z m2672 -78 c-3 -3 -12 -4 -19 -1 -8 3 -5 6 6 6 11 1 17 -2 13 -5z
m-2794 -47 c-4 -6 -1 -7 7 -2 8 5 18 2 25 -8 20 -28 169 -114 245 -142 45 -16
106 -29 152 -32 l77 -6 19 -38 19 -38 -61 5 c-142 11 -164 15 -216 33 -84 30
-146 68 -216 133 -57 54 -91 108 -77 122 10 9 33 -15 26 -27z m-1020 6 c-7 -2
-19 -2 -25 0 -7 3 -2 5 12 5 14 0 19 -2 13 -5z m3747 3 c0 -2 -7 -7 -16 -10
-8 -3 -12 -2 -9 4 6 10 25 14 25 6z m-60 -30 c0 -2 -7 -7 -16 -10 -8 -3 -12
-2 -9 4 6 10 25 14 25 6z m-1964 -54 c-18 -16 -18 -16 -6 6 6 13 14 21 18 18
3 -4 -2 -14 -12 -24z m1734 -62 c-8 -5 -19 -10 -25 -10 -5 0 -3 5 5 10 8 5 20
10 25 10 6 0 3 -5 -5 -10z m-183 -76 c-3 -3 -12 -4 -19 -1 -8 3 -5 6 6 6 11 1
17 -2 13 -5z m-110 -40 c-3 -3 -12 -4 -19 -1 -8 3 -5 6 6 6 11 1 17 -2 13 -5z
m-260 -70 c-3 -3 -12 -4 -19 -1 -8 3 -5 6 6 6 11 1 17 -2 13 -5z m-174 -41
c-7 -2 -21 -2 -30 0 -10 3 -4 5 12 5 17 0 24 -2 18 -5z"/>
<path d="M4288 6804 c-17 -9 -25 -20 -21 -29 3 -8 8 -15 12 -16 42 -7 81 -6
81 2 0 5 14 9 30 9 36 0 38 13 8 34 -27 19 -73 19 -110 0z"/>
<path d="M4505 6693 c-42 -6 -163 -53 -177 -70 -15 -19 17 -53 51 -53 33 1
156 61 156 77 0 6 3 15 8 19 4 4 7 13 7 21 0 7 -3 12 -7 12 -5 -1 -21 -4 -38
-6z"/>
<path d="M4660 6610 c-24 -7 -43 -17 -157 -81 -29 -17 -80 -34 -114 -40 -93
-15 -103 -28 -44 -56 30 -14 44 -15 90 -6 59 13 160 59 187 86 10 9 23 17 28
17 6 0 9 5 8 11 -2 7 12 16 30 21 31 8 39 23 24 43 -9 13 -21 14 -52 5z"/>
<path d="M4800 5951 c-20 -4 -41 -10 -47 -14 -6 -4 -13 -2 -15 4 -3 9 -10 9
-28 -1 -41 -22 1 -32 133 -30 67 1 148 -1 180 -5 31 -4 57 -3 57 2 -1 22 -22
31 -99 42 -92 12 -127 12 -181 2z"/>
<path d="M4948 5829 c-134 -9 -238 -38 -238 -65 0 -17 62 -19 92 -3 12 6 35
13 52 15 89 11 240 35 245 40 7 6 -20 24 -34 22 -5 0 -58 -4 -117 -9z"/>
<path d="M4980 5721 c-30 -10 -58 -18 -62 -20 -25 -6 -129 -45 -166 -62 -18
-8 -31 -18 -29 -24 5 -13 65 -25 70 -12 1 5 14 11 27 12 14 1 31 3 38 4 7 0
10 6 7 11 -3 6 3 11 14 11 12 1 26 3 31 4 6 1 17 3 26 4 9 0 12 6 8 13 -5 7 0
9 14 6 12 -4 26 0 33 8 6 7 27 16 48 20 59 11 71 21 38 33 -34 13 -28 13 -97
-8z"/>
<path d="M5952 5250 c-13 -10 -23 -22 -22 -26 0 -4 -7 -9 -16 -10 -23 -4 -118
-68 -165 -112 -49 -46 -51 -66 -6 -57 61 12 206 134 208 175 1 17 3 19 6 8 6
-23 9 -22 40 2 20 15 22 20 9 20 -10 0 -14 5 -11 10 11 17 -19 10 -43 -10z"/>
<path d="M6840 4066 c0 -13 7 -29 15 -36 8 -7 17 -28 21 -47 4 -23 9 -31 14
-22 6 8 10 3 13 -17 2 -16 3 -1 2 34 -3 65 -24 112 -50 112 -9 0 -15 -9 -15
-24z"/>
<path d="M2791 2504 c-121 -36 -217 -82 -203 -96 13 -13 64 -18 72 -7 3 4 25
10 50 14 25 4 50 10 55 15 6 4 35 15 65 25 30 10 62 25 71 35 15 15 15 18 -2
28 -10 7 -20 12 -21 11 -2 0 -41 -11 -87 -25z"/>
<path d="M2550 2406 c0 -9 7 -16 16 -16 17 0 14 22 -4 28 -7 2 -12 -3 -12 -12z"/>
<path d="M2877 2374 c-4 -4 -37 -10 -74 -15 -191 -21 -276 -36 -269 -48 10
-15 140 -20 236 -9 96 12 161 40 152 66 -4 13 -34 16 -45 6z"/>
<path d="M2565 2218 c10 -25 49 -40 111 -43 33 -1 59 -3 59 -4 0 -1 34 -3 76
-6 86 -5 134 5 134 26 0 11 -23 15 -100 20 -55 4 -142 10 -193 14 -80 7 -92 6
-87 -7z"/>
<path d="M3130 1663 c-104 -38 -262 -147 -242 -167 10 -10 40 -6 69 9 96 49
205 95 239 101 50 8 94 33 87 51 -5 13 -120 18 -153 6z"/>
<path d="M3165 1524 c-85 -32 -126 -58 -123 -78 6 -39 33 -43 115 -13 43 15
86 27 96 27 9 0 17 7 17 15 0 8 -5 15 -11 15 -8 0 -8 4 0 13 8 10 7 17 -1 25
-16 16 -44 14 -93 -4z"/>
<path d="M3228 1347 c-41 -8 -48 -13 -48 -33 0 -17 7 -25 26 -30 45 -11 144
10 107 23 -7 2 -10 10 -7 18 9 22 -27 32 -78 22z"/>
<path d="M2974 6268 c-16 -22 -48 -83 -46 -86 1 -1 -5 -18 -13 -38 -8 -20 -15
-40 -15 -44 0 -4 -6 -20 -14 -36 -17 -36 -36 -79 -71 -164 -15 -36 -36 -84
-46 -107 -11 -24 -19 -50 -19 -58 0 -8 -4 -15 -10 -15 -5 0 -10 -5 -10 -11 0
-10 -43 -122 -74 -194 -8 -16 -29 -66 -47 -110 -19 -44 -37 -81 -41 -83 -5 -2
-8 -11 -8 -21 0 -9 -12 -31 -26 -49 -21 -25 -37 -33 -75 -38 -45 -6 -48 -8
-51 -38 -2 -17 1 -46 6 -63 l9 -33 229 0 228 0 0 30 c0 17 -5 30 -12 30 -10 0
-10 2 0 9 8 4 12 19 10 32 -3 22 -9 25 -87 32 -47 4 -87 9 -89 12 -3 3 1 24 8
47 7 24 15 48 16 55 1 7 17 48 35 93 l33 80 256 -2 255 -3 3 -34 c2 -19 9 -40
17 -45 13 -11 20 -40 31 -128 6 -45 5 -48 -22 -59 -16 -6 -56 -14 -89 -18
l-60 -6 0 -60 0 -60 264 -3 c146 -1 268 1 272 5 6 7 -9 110 -18 122 -1 2 -32
5 -69 6 -75 3 -80 7 -120 85 -15 30 -36 65 -47 77 -11 13 -18 26 -14 29 3 4
-9 36 -28 73 -18 37 -41 93 -50 124 -9 32 -36 95 -59 140 -23 46 -50 109 -60
142 -11 32 -25 70 -32 84 -8 14 -14 36 -14 47 0 12 -7 35 -15 50 -8 16 -17 45
-21 64 -3 19 -17 61 -31 93 l-27 57 -67 0 c-42 0 -70 -5 -75 -12z m90 -130 c9
-13 16 -43 16 -70 0 -28 6 -52 15 -62 8 -8 15 -23 15 -33 0 -10 9 -36 19 -57
11 -21 23 -51 26 -66 3 -16 14 -38 24 -49 11 -13 16 -31 14 -45 -4 -17 2 -30
16 -42 13 -12 21 -30 21 -50 l0 -32 -202 -4 c-112 -2 -205 -2 -207 -1 -2 1 7
7 20 12 13 5 21 10 16 10 -4 1 0 16 10 34 9 17 17 34 18 37 0 3 31 82 68 177
73 184 89 243 66 243 -11 0 -11 2 1 10 22 14 27 13 44 -12z"/>
<path d="M4253 4554 c-126 -27 -242 -102 -308 -199 -37 -53 -39 -60 -37 -123
2 -65 16 -128 32 -146 19 -20 -3 -36 -49 -36 -136 -1 -322 -123 -387 -255 -25
-52 -29 -71 -29 -142 1 -67 5 -87 21 -110 12 -15 28 -44 38 -63 20 -41 95
-102 146 -118 88 -29 260 -39 317 -19 23 8 53 12 66 10 14 -3 28 0 31 6 4 6
14 11 22 11 8 0 38 15 67 33 120 78 198 195 196 294 -1 29 -6 53 -10 53 -5 0
-9 5 -9 12 0 6 -7 19 -15 28 -14 15 -7 18 79 33 130 23 217 71 252 139 16 32
19 98 3 98 -5 0 -7 5 -4 10 8 13 -13 40 -31 40 -8 0 -14 -9 -14 -20 0 -11 5
-20 10 -20 6 0 10 -15 10 -34 0 -26 -5 -36 -20 -41 -11 -3 -20 -10 -20 -14 0
-11 -70 -49 -137 -73 -51 -19 -87 -23 -298 -28 -248 -7 -257 -8 -317 -33 -92
-38 -143 -130 -109 -195 5 -9 15 -31 22 -48 7 -17 25 -38 41 -47 18 -10 26
-21 22 -28 -4 -7 -3 -10 2 -7 12 7 76 -27 67 -36 -3 -3 3 -6 15 -6 12 0 22 4
22 9 0 16 -41 61 -56 61 -8 0 -14 5 -14 10 0 6 -11 16 -25 22 -19 9 -25 19
-25 45 0 99 89 163 238 171 79 4 151 -8 177 -30 13 -11 27 -10 20 2 -3 6 -3
10 2 10 26 0 44 -127 21 -151 -7 -8 -20 -27 -28 -44 -20 -41 -96 -121 -145
-154 -48 -32 -88 -46 -177 -62 -58 -11 -74 -10 -122 5 -57 18 -136 84 -136
113 0 7 -6 13 -12 13 -15 0 -18 152 -4 210 23 98 130 244 204 276 15 7 20 13
12 14 -19 2 38 21 65 22 41 1 52 -3 75 -24 14 -13 25 -22 25 -20 0 2 14 -2 30
-9 43 -17 128 -17 149 0 13 11 14 16 4 22 -10 7 -10 9 0 9 21 0 13 28 -14 49
-22 17 -41 21 -109 21 -93 0 -96 2 -89 71 8 76 58 162 132 229 65 59 188 129
228 131 18 0 18 1 -1 9 -30 13 71 12 119 -1 39 -11 86 -49 86 -70 0 -7 -8 -9
-22 -4 -36 13 -95 10 -112 -4 -21 -17 -20 -53 0 -94 21 -41 31 -47 75 -47 38
0 81 35 94 78 13 43 -5 121 -33 147 -57 53 -183 69 -319 39z m-88 -551 c-4
-16 -8 -30 -10 -32 -11 -10 -80 17 -93 37 -14 22 -14 22 48 22 l62 0 -7 -27z"/>
<path d="M6270 4215 c0 -8 2 -15 4 -15 2 0 6 7 10 15 3 8 1 15 -4 15 -6 0 -10
-7 -10 -15z"/>
<path d="M4234 2963 c4 -27 7 -58 7 -70 -1 -22 3 -23 72 -24 39 0 80 -2 90 -4
48 -9 47 -3 47 -409 0 -209 -4 -397 -9 -416 -13 -58 -50 -90 -112 -96 -103
-10 -102 -10 -95 -57 3 -23 6 -52 6 -65 l0 -22 550 0 550 1 0 214 c0 195 -2
214 -17 218 -17 4 -17 5 0 6 13 1 17 8 15 24 -3 20 -9 22 -70 25 l-67 3 1 -63
c2 -78 -10 -175 -25 -208 -33 -72 -82 -84 -332 -78 -124 2 -156 6 -178 21
l-27 17 0 406 c0 346 2 409 15 435 20 38 50 49 131 49 l64 0 0 35 c0 21 -5 35
-12 35 -10 0 -10 2 0 9 8 4 12 19 10 32 l-3 24 -309 3 -309 2 7 -47z m479 -80
c-7 -2 -19 -2 -25 0 -7 3 -2 5 12 5 14 0 19 -2 13 -5z"/>
<path d="M1162 2100 c0 -14 2 -19 5 -12 2 6 2 18 0 25 -3 6 -5 1 -5 -13z"/>
<path d="M1190 2053 c0 -23 15 -39 23 -26 3 5 -1 17 -9 28 -14 18 -14 18 -14
-2z"/>
<path d="M1220 2003 c0 -15 18 -35 23 -27 3 5 -1 15 -9 22 -8 7 -14 9 -14 5z"/>
</g>
</svg>
